# xmcd
#
# Track frame offsets: 
#        182
#        16802
#        30707
#        50137
#        68740
#        96885
#        114862
#        136317
#        159690
#        183002
#        206880
#        226595
#        241477
#
# Disc length: 3601 seconds
#
# Revision: 2
# Processed by: cddbd v1.5.2PL0 Copyright (c) Steve Scherf et al.
# Submitted via: ExactAudioCopy v0.99pb3
#
DISCID=a60e0f0d
DTITLE=Jimmy Witherspoon - Jimmy Witherspoon Live at Condon's, New Yor
DTITLE=k
DYEAR=2000
DGENRE=Blues
TTITLE0=Goin' To Chicago
TTITLE1=Gee, Baby, Ain't I Good to You
TTITLE2=You Got Me Runnin'
TTITLE3=Big Boss Man
TTITLE4=Sweet Lotus Blossom
TTITLE5=I'm Gonna Move to the Outskirts of Town
TTITLE6=If I Don't Get Well No More
TTITLE7=Money's Gettin' Cheaper
TTITLE8=In the Dark
TTITLE9=I'm Knocking Out Your Teeth Tonite
TTITLE10=Ain't Nobody's Business
TTITLE11=Trouble in Mind
TTITLE12=Don't You Miss Your Baby
EXTD=
EXTT0=
EXTT1=
EXTT2=
EXTT3=
EXTT4=
EXTT5=
EXTT6=
EXTT7=
EXTT8=
EXTT9=
EXTT10=
EXTT11=
EXTT12=
PLAYORDER=
